<svg width="382" height="182" viewBox="0 0 382 182" fill="none" xmlns="http://www.w3.org/2000/svg">
<g clip-path="url(#clip0_12_1211)">
<mask id="mask0_12_1211" style="mask-type:luminance" maskUnits="userSpaceOnUse" x="0" y="0" width="382" height="182">
<path d="M0 0H381.272V182H0V0Z" fill="white"/>
</mask>
<g mask="url(#mask0_12_1211)">
<g opacity="0.35">
<path fill-rule="evenodd" clip-rule="evenodd" d="M197.49 36.5582C198.292 34.1743 196.967 31.648 194.532 30.9166C192.093 30.1836 189.466 31.5222 188.665 33.9032C187.863 36.2872 189.189 38.8135 191.624 39.5448C194.062 40.2779 196.69 38.9392 197.49 36.5582Z" stroke="#A6A6A6" stroke-width="0.5" stroke-miterlimit="10"/>
<path fill-rule="evenodd" clip-rule="evenodd" d="M201.056 36.5578C203.003 30.781 199.786 24.6531 193.872 22.8773C187.96 21.1002 181.586 24.347 179.639 30.1238C177.691 35.9006 180.907 42.0285 186.823 43.8043C192.733 45.5814 199.109 42.3345 201.056 36.5578Z" stroke="#A6A6A6" stroke-width="0.5" stroke-miterlimit="10"/>
<path fill-rule="evenodd" clip-rule="evenodd" d="M204.625 36.56C207.716 27.3858 202.607 17.6592 193.219 14.8393C183.83 12.0194 173.709 17.1716 170.618 26.3457C167.527 35.5199 172.636 45.2465 182.024 48.0664C191.413 50.8863 201.534 45.7341 204.625 36.56Z" stroke="#A6A6A6" stroke-width="0.5" stroke-miterlimit="10"/>
<path fill-rule="evenodd" clip-rule="evenodd" d="M208.19 36.5638C212.424 23.9951 205.427 10.6686 192.563 6.8029C179.699 2.93723 165.832 9.99764 161.596 22.5646C157.362 35.1333 164.358 48.4598 177.223 52.3255C190.087 56.1912 203.954 49.1307 208.19 36.5638Z" stroke="#A6A6A6" stroke-width="0.5" stroke-miterlimit="10"/>
<path fill-rule="evenodd" clip-rule="evenodd" d="M211.757 36.5628C217.137 20.5984 208.246 3.6715 191.907 -1.23532C175.566 -6.14381 157.955 2.82191 152.575 18.7863C147.195 34.7507 156.085 51.6776 172.425 56.5844C188.763 61.4912 206.377 52.5272 211.757 36.5628Z" stroke="#A6A6A6" stroke-width="0.5" stroke-miterlimit="10"/>
<path fill-rule="evenodd" clip-rule="evenodd" d="M215.325 36.5662C221.848 17.2073 211.069 -3.31957 191.255 -9.27213C171.441 -15.2247 150.08 -4.3524 143.558 15.0065C137.036 34.3654 147.814 54.8922 167.628 60.8447C187.442 66.7973 208.803 55.925 215.325 36.5662Z" stroke="#A6A6A6" stroke-width="0.5" stroke-miterlimit="10"/>
<path fill-rule="evenodd" clip-rule="evenodd" d="M218.888 36.5645C226.556 13.8098 213.884 -10.3173 190.594 -17.3157C167.304 -24.311 142.197 -11.5335 134.532 11.2228C126.863 33.9774 139.537 58.1046 162.825 65.1029C186.116 72.0983 211.222 59.3207 218.888 36.5645Z" stroke="#A6A6A6" stroke-width="0.5" stroke-miterlimit="10"/>
<path fill-rule="evenodd" clip-rule="evenodd" d="M222.452 36.566C231.262 10.4169 216.704 -17.3131 189.936 -25.3514C163.17 -33.3925 134.317 -18.7067 125.505 7.44535C116.694 33.5945 131.255 61.3216 158.021 69.3627C184.787 77.4038 213.639 62.718 222.452 36.566Z" stroke="#A6A6A6" stroke-width="0.5" stroke-miterlimit="10"/>
<path fill-rule="evenodd" clip-rule="evenodd" d="M226.021 36.5662C235.975 7.01967 219.524 -24.3091 189.284 -33.3913C159.041 -42.4753 126.444 -25.8841 116.489 3.66235C106.534 33.2089 122.983 64.5359 153.225 73.6199C183.465 82.7051 216.066 66.1127 226.021 36.5662Z" stroke="#A6A6A6" stroke-width="0.5" stroke-miterlimit="10"/>
<path fill-rule="evenodd" clip-rule="evenodd" d="M229.587 36.569C240.687 3.62963 222.345 -31.3007 188.63 -41.4287C154.914 -51.5567 118.567 -33.0561 107.47 -0.115147C96.3702 32.8242 114.711 67.7545 148.426 77.8826C182.143 88.0106 218.486 69.5112 229.587 36.569Z" stroke="#A6A6A6" stroke-width="0.5" stroke-miterlimit="10"/>
<path d="M233.151 36.5699C245.393 0.23315 225.163 -38.2942 187.973 -49.4679C150.781 -60.6417 110.687 -40.2329 98.4456 -3.89907C86.2025 32.4377 106.433 70.965 143.624 82.1388C180.815 93.3125 220.905 72.905 233.148 36.5682" stroke="#A6A6A6" stroke-width="0.5" stroke-miterlimit="10"/>
<path d="M236.718 36.574C250.107 -3.15558 227.983 -45.2862 187.317 -57.5011C146.649 -69.7177 102.812 -47.4019 89.4234 -7.67233C76.038 32.0589 98.1588 74.1879 138.827 86.4045C179.493 98.6194 223.331 76.3081 236.721 36.5757" stroke="#A6A6A6" stroke-width="0.5" stroke-miterlimit="10"/>
<path fill-rule="evenodd" clip-rule="evenodd" d="M240.288 36.572C254.819 -6.55498 230.807 -52.2826 186.663 -65.5449C142.519 -78.8073 94.9359 -54.5832 80.4036 -11.4563C65.8715 31.6707 89.8841 77.3983 134.028 90.6607C178.17 103.921 225.754 79.7019 240.288 36.572Z" stroke="#A6A6A6" stroke-width="0.5" stroke-miterlimit="10"/>
<path fill-rule="evenodd" clip-rule="evenodd" d="M243.848 36.5734C259.523 -9.94804 233.62 -59.2773 186.003 -73.5837C138.385 -87.8871 87.0541 -61.7595 71.3797 -15.238C55.7054 31.2834 81.6085 80.6127 129.225 94.9191C176.841 109.225 228.172 83.0978 243.848 36.5734Z" stroke="#A6A6A6" stroke-width="0.5" stroke-miterlimit="10"/>
<path d="M247.419 36.5741C264.239 -13.3431 236.445 -66.2739 185.351 -81.6203C134.257 -96.9695 79.1795 -68.9335 62.3588 -19.0164C45.5381 30.9008 73.3331 83.8288 124.426 99.178C175.518 114.526 230.596 86.4942 247.416 36.5724" stroke="#A6A6A6" stroke-width="0.5" stroke-miterlimit="10"/>
<path d="M250.982 36.5763C268.946 -16.7383 239.261 -73.2679 184.693 -89.6583C130.122 -106.05 71.3005 -76.1091 53.3375 -22.7974C35.373 30.5172 65.0598 87.0438 119.628 103.439C174.195 119.832 233.021 89.8896 250.984 36.5779" stroke="#A6A6A6" stroke-width="0.5" stroke-miterlimit="10"/>
<path d="M254.547 36.5757C273.656 -20.1317 242.081 -80.2629 184.038 -97.699C125.993 -115.137 63.4244 -83.2873 44.3177 -26.5782C25.211 30.1308 56.7838 90.2603 114.829 107.698C172.872 125.134 235.443 93.2864 254.55 36.5774" stroke="#A6A6A6" stroke-width="0.5" stroke-miterlimit="10"/>
<path d="M258.111 36.5793C278.365 -23.5255 244.898 -87.2553 183.379 -105.737C121.861 -124.219 55.5437 -90.463 35.2905 -30.3582C15.0374 29.7466 48.5047 93.4764 110.023 111.958C171.539 130.438 237.859 96.6841 258.11 36.5776" stroke="#A6A6A6" stroke-width="0.5" stroke-miterlimit="10"/>
<path fill-rule="evenodd" clip-rule="evenodd" d="M261.679 36.5805C283.075 -26.9188 247.72 -94.2485 182.724 -113.773C117.729 -133.298 47.6669 -97.6366 26.2715 -34.1373C4.8761 29.362 40.2311 96.6918 105.226 116.216C170.219 135.739 240.281 100.078 261.679 36.5805Z" stroke="#A6A6A6" stroke-width="0.5" stroke-miterlimit="10"/>
<path fill-rule="evenodd" clip-rule="evenodd" d="M265.242 36.5808C287.784 -30.3143 250.534 -101.244 182.066 -121.813C113.596 -142.384 39.7856 -104.811 17.248 -37.9173C-5.29126 28.9794 31.9556 99.9079 100.424 120.477C168.892 141.045 242.7 103.476 265.242 36.5808Z" stroke="#A6A6A6" stroke-width="0.5" stroke-miterlimit="10"/>
<path d="M268.809 36.5825C292.493 -33.707 253.356 -108.237 181.412 -129.852C109.464 -151.465 31.9087 -111.987 8.22858 -41.6987C-15.4557 28.5908 23.6818 103.121 95.628 124.737C167.57 146.35 245.128 106.874 268.812 36.5842" stroke="#A6A6A6" stroke-width="0.5" stroke-miterlimit="10"/>
<path fill-rule="evenodd" clip-rule="evenodd" d="M272.379 36.5831C297.209 -37.1021 256.179 -115.236 180.759 -137.888C105.339 -160.546 24.0367 -119.16 -0.792454 -45.4772C-25.6205 28.2098 15.4088 106.339 90.83 128.996C166.248 151.652 247.551 110.27 272.379 36.5831Z" stroke="#A6A6A6" stroke-width="0.5" stroke-miterlimit="10"/>
<path fill-rule="evenodd" clip-rule="evenodd" d="M275.942 36.586C301.916 -40.4938 258.997 -122.227 180.099 -145.927C101.202 -169.627 16.1548 -126.336 -9.81822 -49.2562C-35.7911 27.8235 7.12848 109.554 86.0248 133.257C164.919 156.958 249.968 113.669 275.942 36.586Z" stroke="#A6A6A6" stroke-width="0.5" stroke-miterlimit="10"/>
<path fill-rule="evenodd" clip-rule="evenodd" d="M279.511 36.5852C306.627 -43.892 261.817 -129.224 179.447 -153.968C97.0739 -178.714 8.28037 -133.514 -18.8349 -53.0402C-45.9517 27.4369 -1.14014 112.766 81.2291 137.513C163.6 162.257 252.394 117.062 279.511 36.5852Z" stroke="#A6A6A6" stroke-width="0.5" stroke-miterlimit="10"/>
<path fill-rule="evenodd" clip-rule="evenodd" d="M283.074 36.5893C311.336 -47.2807 264.635 -136.214 178.789 -162.001C92.9382 -187.79 0.399632 -140.685 -27.8594 -56.8135C-56.1184 27.0581 -9.42066 115.99 76.4268 141.777C162.27 167.565 254.814 120.464 283.074 36.5893Z" stroke="#A6A6A6" stroke-width="0.5" stroke-miterlimit="10"/>
<path fill-rule="evenodd" clip-rule="evenodd" d="M286.643 36.5885C316.048 -50.6788 267.456 -143.211 178.136 -170.042C88.8127 -196.875 -7.47469 -147.864 -36.8786 -60.5991C-66.284 26.6683 -17.6919 119.201 71.6311 146.033C160.95 172.867 257.24 123.858 286.643 36.5885Z" stroke="#A6A6A6" stroke-width="0.5" stroke-miterlimit="10"/>
<path d="M290.204 36.59C320.755 -54.0702 270.272 -150.204 177.477 -178.081C84.6779 -205.959 -15.3558 -155.04 -45.9035 -64.3779C-76.4512 26.284 -25.9714 122.416 66.827 150.295C159.623 178.172 259.655 127.255 290.207 36.5917" stroke="#A6A6A6" stroke-width="0.5" stroke-miterlimit="10"/>
<path fill-rule="evenodd" clip-rule="evenodd" d="M293.773 36.59C325.467 -57.4676 273.095 -157.203 176.822 -186.123C80.5467 -215.044 -23.232 -162.219 -54.9236 -68.1598C-86.6177 25.8978 -34.2433 125.63 62.0278 154.553C158.296 183.474 262.078 130.651 293.773 36.59Z" stroke="#A6A6A6" stroke-width="0.5" stroke-miterlimit="10"/>
<path fill-rule="evenodd" clip-rule="evenodd" d="M297.338 36.5922C330.175 -60.8599 275.914 -164.195 176.164 -194.158C76.4139 -224.125 -31.1112 -169.392 -63.9476 -71.9396C-96.7838 25.5124 -42.5219 128.845 57.2261 158.81C156.974 188.776 264.501 134.047 297.338 36.5922Z" stroke="#A6A6A6" stroke-width="0.5" stroke-miterlimit="10"/>
<path fill-rule="evenodd" clip-rule="evenodd" d="M300.905 36.5924C334.887 -64.2554 278.733 -171.191 175.51 -202.198C72.2852 -233.206 -38.9889 -176.566 -72.9676 -75.7197C-106.948 25.1299 -50.7939 132.061 52.427 163.071C155.648 194.08 266.923 137.445 300.905 36.5924Z" stroke="#A6A6A6" stroke-width="0.5" stroke-miterlimit="10"/>
<path fill-rule="evenodd" clip-rule="evenodd" d="M304.471 36.5942C339.596 -67.6481 281.552 -178.184 174.855 -210.236C68.1546 -242.29 -46.8636 -183.74 -81.9872 -79.501C-117.112 24.7413 -59.068 135.274 47.631 167.331C154.325 199.385 269.344 140.839 304.471 36.5942Z" stroke="#A6A6A6" stroke-width="0.5" stroke-miterlimit="10"/>
<path fill-rule="evenodd" clip-rule="evenodd" d="M308.038 36.5971C344.309 -71.041 284.372 -185.177 174.199 -218.271C64.0224 -251.367 -54.7406 -190.912 -91.0082 -83.2755C-127.277 24.3642 -67.3434 138.494 42.8325 171.594C153.002 204.686 271.769 144.237 308.038 36.5971Z" stroke="#A6A6A6" stroke-width="0.5" stroke-miterlimit="10"/>
</g>
</g>
</g>
<defs>
<clipPath id="clip0_12_1211">
<rect width="381.272" height="182" fill="white"/>
</clipPath>
</defs>
</svg>
